<svg width="102" height="46" viewBox="0 0 102 46" fill="none" xmlns="http://www.w3.org/2000/svg">
<path fill-rule="evenodd" clip-rule="evenodd" d="M74.2188 31.4903V31.3972C74.2188 24.1586 80.0465 18.2827 87.8967 18.2827C95.7468 18.2827 101.48 24.0639 101.48 31.3025V31.3972C101.48 38.6358 95.6521 44.5118 87.8019 44.5118C79.9518 44.5118 74.2188 38.7305 74.2188 31.4919V31.4903ZM94.4307 31.4903V31.3972C94.4307 27.6832 91.7519 24.4411 87.8036 24.4411C83.8553 24.4411 81.2696 27.5901 81.2696 31.3042V31.3989C81.2696 35.1129 83.9483 38.355 87.8967 38.355C91.845 38.355 94.4307 35.2043 94.4307 31.4919V31.4903Z" fill="#DE0E7B"/>
<path fill-rule="evenodd" clip-rule="evenodd" d="M77.6373 40.6565C77.6373 42.6307 76.0387 44.2276 74.0645 44.2276C72.0903 44.2276 70.4917 42.629 70.4917 40.6565V40.3275C68.7535 42.6772 66.3556 44.417 62.6433 44.417C56.7673 44.417 51.1738 39.8107 51.1738 31.3972V31.3025C51.1738 22.889 56.6726 18.2826 62.6433 18.2826C66.4503 18.2826 68.8001 20.0208 70.4917 22.0432V12.9235C70.4917 10.9493 72.0903 9.35236 74.0645 9.35236C76.0387 9.35236 77.6373 10.9493 77.6373 12.9235V40.6565ZM58.3194 31.3025V31.3972C58.3194 35.5798 61.1394 38.3533 64.4762 38.3533C67.813 38.3533 70.5864 35.5798 70.5864 31.3972V31.3025C70.5864 27.1198 67.813 24.3464 64.4762 24.3464C61.1394 24.3464 58.3194 27.0716 58.3194 31.3025Z" fill="#8D257B"/>
<path fill-rule="evenodd" clip-rule="evenodd" d="M43.4326 44.5102C35.8649 44.5102 30.2715 39.1992 30.2715 31.4903V31.3973C30.2715 24.2069 35.3947 18.2827 42.7263 18.2827C51.1398 18.2827 54.8538 25.1923 54.8538 30.4085C54.8538 32.4774 53.3965 33.8401 51.517 33.8401H37.3688C38.0734 37.0838 40.3301 38.7755 43.5256 38.7755C45.4998 38.7755 47.1449 38.1656 48.6023 37.0838C49.1191 36.7083 49.5894 36.5188 50.3405 36.5188C51.9391 36.5188 53.114 37.7402 53.114 39.3388C53.114 40.2794 52.6902 40.9839 52.1734 41.4542C49.9649 43.3337 47.0968 44.5102 43.4309 44.5102H43.4326ZM48.039 29.3749C47.6169 26.1794 45.7358 24.0174 42.728 24.0174C39.7202 24.0174 37.8391 26.1328 37.2758 29.3749H48.039Z" fill="#DE0E7B"/>
<path fill-rule="evenodd" clip-rule="evenodd" d="M38.3699 0C36.4938 0 35.417 1.21973 34.9484 2.71863L24.712 34.7672L20.7271 22.0149C20.2119 20.3282 18.8991 19.155 17.0695 19.155H16.6475C14.8195 19.155 13.5067 20.3282 12.9899 22.0149L9.05158 34.719L6.8913 29.1455C6.37449 27.5054 5.20295 26.3804 3.42155 26.3804C1.31279 26.3804 0 27.974 0 29.6141C0 30.224 0.187778 30.9269 0.329027 31.349L4.78585 41.8912C5.53531 44.0947 6.98934 45.0784 8.72421 45.0784H8.95852C10.6934 45.0784 12.1458 44.0947 12.8022 42.0324L16.8336 29.3748L16.8568 29.4513L20.8185 42.0324C21.4749 44.0947 22.9272 45.0784 24.6621 45.0784H24.8964C26.6313 45.0784 28.0837 44.0947 28.8331 41.8912L41.4641 4.73434C41.5588 4.40697 41.6984 3.75058 41.6984 3.28197C41.6984 1.50056 40.3391 0 38.3699 0Z" fill="url(#paint0_linear_2786_6070)"/>
<path fill-rule="evenodd" clip-rule="evenodd" d="M16.5924 17.1408V15.2597C16.1055 15.2032 15.6253 15.1866 15.1633 15.0885C12.5294 14.5318 10.7696 12.315 10.8012 9.62134C10.8328 6.86781 13.0047 4.5347 15.7682 4.28544C18.5483 4.03452 21.1107 5.9555 21.6192 8.67912C22.0048 10.743 21.3633 12.5377 20.127 14.1563C19.1848 15.3876 18.0016 16.3465 16.5924 17.1424V17.1408Z" fill="url(#paint1_linear_2786_6070)"/>
<path fill-rule="evenodd" clip-rule="evenodd" d="M15.7101 8.14111C15.7999 8.31227 15.883 8.47014 15.9727 8.64462C15.7002 8.79751 15.4177 8.92546 15.3911 9.30102H15.9561V10.4642H14.7031C14.7314 9.97901 14.7314 9.50541 14.7929 9.04012C14.8444 8.6546 15.1468 8.39204 15.7101 8.14111Z" fill="white"/>
<path fill-rule="evenodd" clip-rule="evenodd" d="M14.0517 9.31085V10.4624H12.7871C12.8154 9.97555 12.8004 9.49364 12.8818 9.02669C12.9633 8.55475 13.3637 8.33207 13.7908 8.13599C13.8822 8.30549 13.967 8.46335 14.06 8.63617C13.8041 8.80069 13.495 8.91369 13.4834 9.30919H14.0517V9.31085Z" fill="white"/>
<path fill-rule="evenodd" clip-rule="evenodd" d="M19.0572 10.4623H18.4988V9.31403H19.7418C19.6986 9.85243 19.8382 10.4041 19.6072 10.9293C19.446 11.2965 19.1203 11.4793 18.7564 11.6421C18.6667 11.4743 18.5819 11.3164 18.4922 11.1503C18.7348 10.9675 19.0672 10.8728 19.0572 10.4623Z" fill="white"/>
<path fill-rule="evenodd" clip-rule="evenodd" d="M16.8398 11.6424C16.7501 11.4729 16.667 11.3133 16.5723 11.1355C16.8398 10.9843 17.1256 10.858 17.1605 10.4741C16.9744 10.4658 16.7883 10.4575 16.5889 10.4492V9.31757H17.8468C17.8186 9.80612 17.8319 10.2897 17.7504 10.7583C17.669 11.2319 17.2719 11.4546 16.8415 11.6424H16.8398Z" fill="white"/>
<defs>
<linearGradient id="paint0_linear_2786_6070" x1="3.02107" y1="22.54" x2="31.9954" y2="22.54" gradientUnits="userSpaceOnUse">
<stop stop-color="#DE0E7B"/>
<stop offset="1" stop-color="#8D257B"/>
</linearGradient>
<linearGradient id="paint1_linear_2786_6070" x1="11.5922" y1="10.7015" x2="19.1864" y2="10.7015" gradientUnits="userSpaceOnUse">
<stop stop-color="#DE0E7B"/>
<stop offset="1" stop-color="#8D257B"/>
</linearGradient>
</defs>
</svg>
